<svg width="20" height="20" viewBox="0 0 20 20" fill="none" xmlns="http://www.w3.org/2000/svg">
<path d="M20 10C20 10.1894 19.9247 10.3711 19.7908 10.5051C19.6568 10.639 19.4752 10.7143 19.2857 10.7143H10.7143V19.2857C10.7143 19.4752 10.639 19.6568 10.5051 19.7908C10.3711 19.9247 10.1894 20 10 20C9.81056 20 9.62888 19.9247 9.49492 19.7908C9.36097 19.6568 9.28571 19.4752 9.28571 19.2857V10.7143H0.714286C0.524845 10.7143 0.343164 10.639 0.209209 10.5051C0.0752549 10.3711 0 10.1894 0 10C0 9.81056 0.0752549 9.62888 0.209209 9.49492C0.343164 9.36097 0.524845 9.28571 0.714286 9.28571H9.28571V0.714286C9.28571 0.524845 9.36097 0.343164 9.49492 0.209209C9.62888 0.0752549 9.81056 0 10 0C10.1894 0 10.3711 0.0752549 10.5051 0.209209C10.639 0.343164 10.7143 0.524845 10.7143 0.714286V9.28571H19.2857C19.4752 9.28571 19.6568 9.36097 19.7908 9.49492C19.9247 9.62888 20 9.81056 20 10Z" fill="black"/>
</svg>
