<svg width="20" height="36" viewBox="0 0 20 36" fill="none" xmlns="http://www.w3.org/2000/svg">
<g clip-path="url(#clip0_144_10)">
<path d="M11.99 18.01C11.99 16.9054 11.0946 16.01 9.98999 16.01C8.88542 16.01 7.98999 16.9054 7.98999 18.01C7.98999 19.1146 8.88542 20.01 9.98999 20.01C11.0946 20.01 11.99 19.1146 11.99 18.01Z" fill="black"/>
<path d="M19.99 18.01C19.99 16.9054 19.0946 16.01 17.99 16.01C16.8854 16.01 15.99 16.9054 15.99 18.01C15.99 19.1146 16.8854 20.01 17.99 20.01C19.0946 20.01 19.99 19.1146 19.99 18.01Z" fill="black"/>
<path d="M3.98999 18.01C3.98999 16.9054 3.09456 16.01 1.98999 16.01C0.885421 16.01 -0.0100098 16.9054 -0.0100098 18.01C-0.0100098 19.1146 0.885421 20.01 1.98999 20.01C3.09456 20.01 3.98999 19.1146 3.98999 18.01Z" fill="black"/>
</g>
<defs>
<clipPath id="clip0_144_10">
<rect width="36" height="20" fill="white" transform="matrix(0 -1 1 0 0 36)"/>
</clipPath>
</defs>
</svg>
