<svg width="240" height="58" viewBox="0 0 240 58" fill="none" xmlns="http://www.w3.org/2000/svg">
<path fill-rule="evenodd" clip-rule="evenodd" d="M12.5841 7.29205e-06C12.4527 -0.000496643 12.3226 0.0251234 12.2011 0.0753903C12.0797 0.125657 11.9694 0.199577 11.8765 0.292889C11.7836 0.3862 11.71 0.497058 11.66 0.619072C11.61 0.741086 11.5845 0.871843 11.585 1.00381V3.38052H4.50959C2.03215 3.38052 1.12844e-05 5.40117 0 7.88202V53.5063C0 55.9872 2.03215 58 4.50959 58H38.3995C40.8769 58 42.911 55.9872 42.911 53.5063V7.88202C42.911 5.40117 40.8769 3.38052 38.3995 3.38052H31.3241V1.00381C31.3251 0.738625 31.2212 0.483901 31.0353 0.295658C30.8494 0.107415 30.5967 0.00106811 30.3328 7.29205e-06H12.5841ZM13.5754 1.99981H29.3337V6.76885H13.5754V1.99981ZM4.50959 5.38032H11.585V7.76484C11.586 8.03003 11.6919 8.28393 11.8792 8.47071C12.0666 8.65749 12.3201 8.76185 12.5841 8.76084H30.3328C30.5954 8.75978 30.8469 8.65451 31.0326 8.46795C31.2183 8.2814 31.3231 8.02867 31.3241 7.76484V5.38032H38.3995C39.8187 5.38032 40.9206 6.48462 40.9206 7.88202V53.5063C40.9206 54.9037 39.8187 56.008 38.3995 56.008H4.50959C3.09041 56.008 1.99044 54.9037 1.99044 53.5063V7.88202C1.99044 6.48462 3.09041 5.38032 4.50959 5.38032ZM16.0343 15.2836C15.9033 15.2841 15.7738 15.3106 15.653 15.3616C15.5323 15.4125 15.4227 15.4869 15.3306 15.5805L10.3798 20.6151L8.78592 18.7188C8.7016 18.6183 8.5984 18.5355 8.48221 18.4752C8.36603 18.4148 8.23913 18.378 8.10879 18.3669C7.97844 18.3559 7.84721 18.3707 7.72258 18.4107C7.59796 18.4506 7.4824 18.5149 7.3825 18.5997C7.28263 18.6845 7.20038 18.7883 7.14047 18.9051C7.08055 19.0219 7.04413 19.1495 7.03331 19.2804C7.02248 19.4114 7.03744 19.5432 7.07735 19.6683C7.11726 19.7935 7.18133 19.9095 7.26589 20.0097L9.56539 22.7477C9.65435 22.853 9.76405 22.9386 9.88757 22.9991C10.0111 23.0597 10.1457 23.0939 10.2831 23.0996C10.4204 23.1052 10.5574 23.0823 10.6854 23.0321C10.8135 22.982 10.9298 22.9058 11.0271 22.8082L16.7496 16.9905C16.8418 16.8971 16.9147 16.7863 16.9642 16.6645C17.0137 16.5428 17.0388 16.4124 17.0381 16.2809C17.0373 16.1494 17.0108 16.0193 16.9599 15.8981C16.9091 15.7769 16.8349 15.6669 16.7417 15.5746C16.6487 15.4816 16.5383 15.408 16.4169 15.3581C16.2954 15.3082 16.1655 15.2829 16.0343 15.2836ZM21.4886 18.4669C21.2256 18.4674 20.9736 18.5724 20.7875 18.7591C20.6014 18.9457 20.4963 19.1987 20.4953 19.4629C20.4948 19.5943 20.5201 19.7246 20.5697 19.8463C20.6194 19.9679 20.6925 20.0785 20.7847 20.1717C20.877 20.265 20.9866 20.339 21.1074 20.3896C21.2282 20.4402 21.3577 20.4664 21.4886 20.4667H35.7326C35.8633 20.4662 35.9926 20.4398 36.1132 20.3891C36.2337 20.3384 36.3432 20.2643 36.4352 20.1711C36.5273 20.0779 36.6001 19.9673 36.6497 19.8458C36.6992 19.7243 36.7245 19.5942 36.724 19.4629C36.7229 19.199 36.6182 18.9463 36.4325 18.7597C36.2468 18.5732 35.9952 18.4679 35.7326 18.4669H21.4886ZM16.0304 28.4971C15.7667 28.501 15.5152 28.6084 15.3306 28.7959L10.372 33.8208L8.78786 31.9343C8.61848 31.7333 8.37622 31.607 8.11377 31.5828C7.85132 31.5587 7.58991 31.6387 7.38639 31.8054C7.28442 31.8889 7.2001 31.9918 7.1383 32.108C7.0765 32.2242 7.03844 32.3514 7.02634 32.4824C7.01423 32.6133 7.0283 32.7453 7.06775 32.8708C7.1072 32.9963 7.17124 33.1127 7.25617 33.2134L9.55372 35.9514C9.64371 36.0577 9.75506 36.144 9.88059 36.2048C10.0061 36.2656 10.1431 36.2996 10.2826 36.3046C10.4221 36.3095 10.5611 36.2854 10.6907 36.2336C10.8203 36.1819 10.9375 36.1037 11.0349 36.0041L16.7593 30.1902C16.8514 30.0969 16.9241 29.9865 16.9732 29.8652C17.0224 29.7439 17.047 29.6142 17.0458 29.4834C17.0445 29.3526 17.0174 29.2234 16.9659 29.1031C16.9144 28.9828 16.8396 28.8737 16.7458 28.7822C16.6517 28.6902 16.5402 28.6176 16.4178 28.5686C16.2953 28.5197 16.1623 28.4955 16.0304 28.4971ZM21.4827 31.6765C21.2179 31.6767 20.9639 31.7815 20.7766 31.9679C20.5893 32.1542 20.4839 32.4069 20.4836 32.6705C20.4839 32.9341 20.5893 33.1869 20.7766 33.3732C20.9639 33.5596 21.2179 33.6644 21.4827 33.6646H35.7365C36.0014 33.6644 36.2553 33.5596 36.4426 33.3732C36.6299 33.1869 36.7353 32.9341 36.7356 32.6705C36.7353 32.4069 36.6299 32.1542 36.4426 31.9679C36.2553 31.7815 36.0014 31.6767 35.7365 31.6765H21.4827ZM16.0343 41.7009C15.9033 41.7014 15.7738 41.7279 15.653 41.7788C15.5323 41.8298 15.4227 41.9042 15.3306 41.9977L10.3798 47.0324L8.78592 45.1361C8.7016 45.0356 8.5984 44.9528 8.48221 44.8924C8.36603 44.832 8.23913 44.7953 8.10879 44.7842C7.97844 44.7731 7.84721 44.788 7.72258 44.8279C7.59796 44.8679 7.4824 44.9321 7.3825 45.017C7.28263 45.1018 7.20038 45.2056 7.14047 45.3224C7.08055 45.4392 7.04413 45.5667 7.03331 45.6977C7.02248 45.8286 7.03744 45.9604 7.07735 46.0856C7.11726 46.2107 7.18133 46.3267 7.26589 46.427L9.56539 49.1591C9.65449 49.2642 9.7643 49.3497 9.88788 49.4101C10.0115 49.4704 10.1462 49.5045 10.2835 49.51C10.4208 49.5155 10.5578 49.4923 10.6858 49.442C10.8137 49.3917 10.93 49.3154 11.0271 49.2177L16.7496 43.3999C16.9334 43.2116 17.0357 42.958 17.0342 42.6943C17.0327 42.4305 16.9276 42.1781 16.7417 41.9919C16.6487 41.8989 16.5383 41.8253 16.4169 41.7754C16.2954 41.7254 16.1655 41.7001 16.0343 41.7009ZM21.4886 44.8763C21.3577 44.8766 21.2282 44.9028 21.1074 44.9534C20.9866 45.004 20.877 45.078 20.7847 45.1713C20.6925 45.2645 20.6194 45.3751 20.5697 45.4967C20.5201 45.6184 20.4948 45.7487 20.4953 45.8801C20.4958 46.1446 20.6006 46.3982 20.7868 46.5852C20.9729 46.7723 21.2253 46.8776 21.4886 46.8781H35.7326C35.9956 46.877 36.2474 46.7715 36.4332 46.5845C36.6189 46.3975 36.7234 46.1443 36.724 45.8801C36.7245 45.7488 36.6992 45.6187 36.6497 45.4972C36.6001 45.3757 36.5273 45.2652 36.4352 45.172C36.3432 45.0787 36.2337 45.0047 36.1132 44.9539C35.9926 44.9032 35.8633 44.8768 35.7326 44.8763H21.4886Z" fill="black"/>
<path d="M61.0979 18.897H80.3241V22.3374H72.4291V42.963H68.9929V22.3374H61.0979V18.897Z" fill="black"/>
<path d="M82.0338 35.1591C82.0338 34.7004 82.1176 34.2753 82.2852 33.8837C82.464 33.4809 82.6987 33.1285 82.9892 32.8264C83.291 32.5243 83.643 32.2894 84.0453 32.1215C84.4475 31.9425 84.8722 31.853 85.3192 31.853H93.8343V28.3958H83.0563V25.0897H93.8343C94.2925 25.0897 94.7227 25.1792 95.125 25.3582C95.5273 25.526 95.8737 25.761 96.1643 26.0631C96.466 26.354 96.7007 26.7008 96.8683 27.1036C97.0471 27.5064 97.1365 27.9371 97.1365 28.3958V42.963H93.8343V39.9421C93.8008 40.3561 93.6891 40.7477 93.4991 41.1169C93.3091 41.4861 93.0633 41.8106 92.7616 42.0903C92.471 42.3588 92.1358 42.5714 91.7558 42.728C91.3759 42.8846 90.9736 42.963 90.549 42.963H85.3192C84.8722 42.963 84.4475 42.8791 84.0453 42.7112C83.643 42.5322 83.291 42.2973 82.9892 42.0064C82.6987 41.7043 82.464 41.3519 82.2852 40.9491C82.1176 40.5463 82.0338 40.1156 82.0338 39.6568V35.1591ZM85.3192 39.6568H93.8343V35.1591H85.3192V39.6568Z" fill="black"/>
<path d="M113.429 39.6568V35.5116H105.601C105.143 35.5116 104.713 35.4277 104.311 35.2598C103.908 35.0808 103.556 34.8459 103.255 34.555C102.964 34.2529 102.729 33.9005 102.551 33.4977C102.383 33.0949 102.299 32.6642 102.299 32.2054V28.3958C102.299 27.9371 102.383 27.5064 102.551 27.1036C102.729 26.7008 102.964 26.354 103.255 26.0631C103.556 25.761 103.908 25.526 104.311 25.3582C104.713 25.1792 105.143 25.0897 105.601 25.0897H116.044V28.3958H105.601V32.2054H113.429C113.887 32.2054 114.312 32.2949 114.703 32.474C115.105 32.6418 115.457 32.8767 115.759 33.1788C116.061 33.4697 116.296 33.8166 116.463 34.2193C116.642 34.6221 116.731 35.0529 116.731 35.5116V39.6568C116.731 40.1156 116.642 40.5463 116.463 40.9491C116.296 41.3519 116.061 41.7043 115.759 42.0064C115.457 42.2973 115.105 42.5322 114.703 42.7112C114.312 42.8791 113.887 42.963 113.429 42.963H102.299V39.6568H113.429Z" fill="black"/>
<path d="M133.695 42.963L125.179 35.327V42.963H121.894V18.2089H125.179V32.1383L133.007 25.0897H137.651L128.063 33.7159L138.338 42.963H133.695Z" fill="black"/>
<path d="M141.07 18.897H158.586V22.3374H144.506V29.2182H156.525V32.6586H144.506V42.963H141.07V18.897Z" fill="black"/>
<path d="M178.5 39.6568C178.5 40.1156 178.41 40.5463 178.232 40.9491C178.064 41.3519 177.829 41.7043 177.528 42.0064C177.237 42.2973 176.891 42.5322 176.488 42.7112C176.097 42.8791 175.673 42.963 175.214 42.963H166.347C165.9 42.963 165.476 42.8791 165.073 42.7112C164.671 42.5322 164.319 42.2973 164.017 42.0064C163.727 41.7043 163.492 41.3519 163.313 40.9491C163.146 40.5463 163.062 40.1156 163.062 39.6568V28.3958C163.062 27.9371 163.146 27.5064 163.313 27.1036C163.492 26.7008 163.727 26.354 164.017 26.0631C164.319 25.761 164.671 25.526 165.073 25.3582C165.476 25.1792 165.9 25.0897 166.347 25.0897H175.214C175.673 25.0897 176.097 25.1792 176.488 25.3582C176.891 25.526 177.237 25.761 177.528 26.0631C177.829 26.354 178.064 26.7008 178.232 27.1036C178.41 27.5064 178.5 27.9371 178.5 28.3958V39.6568ZM166.347 28.3958V39.6568H175.214V28.3958H166.347Z" fill="black"/>
<path d="M187.3 28.3958V39.6568H195.815V36.636H199.117V39.6568C199.117 40.1156 199.028 40.5463 198.849 40.9491C198.681 41.3519 198.447 41.7043 198.145 42.0064C197.854 42.2973 197.508 42.5322 197.106 42.7112C196.703 42.8791 196.273 42.963 195.815 42.963H187.3C186.853 42.963 186.428 42.8791 186.026 42.7112C185.624 42.5322 185.272 42.2973 184.97 42.0064C184.679 41.7043 184.445 41.3519 184.266 40.9491C184.098 40.5463 184.015 40.1156 184.015 39.6568V28.3958C184.015 27.9371 184.098 27.5064 184.266 27.1036C184.445 26.7008 184.679 26.354 184.97 26.0631C185.272 25.761 185.624 25.526 186.026 25.3582C186.428 25.1792 186.853 25.0897 187.3 25.0897H195.815C196.273 25.0897 196.703 25.1792 197.106 25.3582C197.508 25.526 197.854 25.761 198.145 26.0631C198.447 26.354 198.681 26.7008 198.849 27.1036C199.028 27.5064 199.117 27.9371 199.117 28.3958V31.4167H195.815V28.3958H187.3Z" fill="black"/>
<path d="M204.632 25.0897H207.917V39.6568H217.12V25.0897H220.422V42.963H217.12V39.9421C217.086 40.3561 216.974 40.7477 216.784 41.1169C216.594 41.4861 216.349 41.8106 216.047 42.0903C215.756 42.3588 215.421 42.5714 215.041 42.728C214.661 42.8846 214.259 42.963 213.834 42.963H207.917C207.47 42.963 207.046 42.8791 206.643 42.7112C206.241 42.5322 205.889 42.2973 205.587 42.0064C205.297 41.7043 205.062 41.3519 204.883 40.9491C204.716 40.5463 204.632 40.1156 204.632 39.6568V25.0897Z" fill="black"/>
<path d="M236.698 39.6568V35.5116H228.87C228.412 35.5116 227.982 35.4277 227.579 35.2598C227.177 35.0808 226.825 34.8459 226.523 34.555C226.233 34.2529 225.998 33.9005 225.819 33.4977C225.652 33.0949 225.568 32.6642 225.568 32.2054V28.3958C225.568 27.9371 225.652 27.5064 225.819 27.1036C225.998 26.7008 226.233 26.354 226.523 26.0631C226.825 25.761 227.177 25.526 227.579 25.3582C227.982 25.1792 228.412 25.0897 228.87 25.0897H239.313V28.3958H228.87V32.2054H236.698C237.156 32.2054 237.581 32.2949 237.972 32.474C238.374 32.6418 238.726 32.8767 239.028 33.1788C239.33 33.4697 239.564 33.8166 239.732 34.2193C239.911 34.6221 240 35.0529 240 35.5116V39.6568C240 40.1156 239.911 40.5463 239.732 40.9491C239.564 41.3519 239.33 41.7043 239.028 42.0064C238.726 42.2973 238.374 42.5322 237.972 42.7112C237.581 42.8791 237.156 42.963 236.698 42.963H225.568V39.6568H236.698Z" fill="black"/>
</svg>
