<svg width="200" height="48" viewBox="0 0 200 48" fill="none" xmlns="http://www.w3.org/2000/svg">
<path fill-rule="evenodd" clip-rule="evenodd" d="M10.4867 6.0348e-06C10.3773 -0.000411015 10.2688 0.0207918 10.1676 0.062392C10.0664 0.103992 9.97447 0.165167 9.89707 0.24239C9.81968 0.319614 9.75836 0.411358 9.71667 0.512335C9.67498 0.613312 9.65373 0.721525 9.65414 0.830735V2.79768H3.758C1.69345 2.79768 9.40364e-06 4.46994 0 6.52305V44.2811C0 46.3342 1.69345 48 3.758 48H31.9996C34.0641 48 35.7592 46.3342 35.7592 44.2811V6.52305C35.7592 4.46994 34.0641 2.79768 31.9996 2.79768H26.1034V0.830735C26.1043 0.611275 26.0177 0.40047 25.8628 0.244683C25.7079 0.0888952 25.4973 0.00088395 25.2773 6.0348e-06H10.4867ZM11.3128 1.65501H24.4447V5.60181H11.3128V1.65501ZM3.758 4.45268H9.65414V6.42608C9.65502 6.64554 9.74323 6.85567 9.89936 7.01024C10.0555 7.16482 10.2668 7.25119 10.4867 7.25035H25.2773C25.4961 7.24948 25.7058 7.16235 25.8605 7.00796C26.0152 6.85357 26.1025 6.64442 26.1034 6.42608V4.45268H31.9996C33.1822 4.45268 34.1005 5.36658 34.1005 6.52305V44.2811C34.1005 45.4376 33.1822 46.3515 31.9996 46.3515H3.758C2.57534 46.3515 1.6587 45.4376 1.6587 44.2811V6.52305C1.6587 5.36658 2.57534 4.45268 3.758 4.45268ZM13.3619 12.6485C13.2528 12.6489 13.1448 12.6709 13.0442 12.713C12.9436 12.7552 12.8523 12.8167 12.7755 12.8942L8.64985 17.0608L7.3216 15.4914C7.25134 15.4083 7.16534 15.3398 7.06851 15.2898C6.97169 15.2398 6.86594 15.2094 6.75732 15.2002C6.6487 15.1911 6.53934 15.2034 6.43548 15.2364C6.33163 15.2695 6.23533 15.3226 6.15208 15.3929C6.06886 15.4631 6.00032 15.549 5.95039 15.6456C5.90046 15.7423 5.87011 15.8478 5.86109 15.9562C5.85206 16.0646 5.86454 16.1737 5.89779 16.2772C5.93105 16.3808 5.98444 16.4768 6.05491 16.5598L7.97116 18.8257C8.04529 18.9128 8.13671 18.9836 8.23964 19.0338C8.34257 19.0839 8.45479 19.1122 8.56922 19.1169C8.68365 19.1216 8.79782 19.1026 8.90454 19.0611C9.01125 19.0196 9.10819 18.9565 9.18926 18.8758L13.958 14.0611C14.0348 13.9838 14.0956 13.8921 14.1368 13.7913C14.1781 13.6906 14.199 13.5827 14.1984 13.4738C14.1978 13.365 14.1757 13.2573 14.1333 13.157C14.0909 13.0567 14.0291 12.9657 13.9514 12.8893C13.8739 12.8124 13.7819 12.7515 13.6807 12.7102C13.5795 12.6688 13.4712 12.6479 13.3619 12.6485ZM17.9071 15.2829C17.688 15.2834 17.478 15.3703 17.3229 15.5247C17.1678 15.6792 17.0803 15.8886 17.0794 16.1072C17.079 16.216 17.1001 16.3238 17.1414 16.4245C17.1828 16.5252 17.2437 16.6167 17.3206 16.6939C17.3975 16.771 17.4889 16.8323 17.5895 16.8742C17.6901 16.9161 17.7981 16.9377 17.9071 16.9379H29.7772C29.8861 16.9375 29.9939 16.9157 30.0943 16.8737C30.1948 16.8317 30.286 16.7704 30.3627 16.6933C30.4394 16.6162 30.5001 16.5247 30.5414 16.4241C30.5827 16.3236 30.6037 16.2159 30.6033 16.1072C30.6024 15.8889 30.5151 15.6797 30.3604 15.5253C30.2056 15.3709 29.996 15.2838 29.7772 15.2829H17.9071ZM13.3587 23.5838C13.1389 23.587 12.9293 23.6759 12.7755 23.8311L8.64337 27.9896L7.32321 26.4283C7.18207 26.262 6.98018 26.1575 6.76148 26.1375C6.54277 26.1175 6.32493 26.1837 6.15533 26.3217C6.07035 26.3908 6.00008 26.476 5.94858 26.5721C5.89708 26.6683 5.86537 26.7736 5.85528 26.882C5.84519 26.9903 5.85692 27.0996 5.88979 27.2034C5.92267 27.3072 5.97603 27.4036 6.04681 27.487L7.96144 29.7529C8.03643 29.8408 8.12921 29.9123 8.23382 29.9626C8.33843 30.0129 8.45254 30.041 8.56881 30.0452C8.68509 30.0493 8.80094 30.0293 8.90892 29.9864C9.01689 29.9436 9.1146 29.8789 9.19575 29.7965L13.9661 24.985C14.0428 24.9078 14.1034 24.8164 14.1444 24.716C14.1853 24.6157 14.2059 24.5083 14.2048 24.4001C14.2038 24.2918 14.1812 24.1849 14.1383 24.0853C14.0954 23.9857 14.033 23.8955 13.9548 23.8197C13.8764 23.7436 13.7835 23.6835 13.6815 23.643C13.5794 23.6025 13.4686 23.5824 13.3587 23.5838ZM17.9023 26.215C17.6816 26.2152 17.4699 26.3019 17.3138 26.4562C17.1578 26.6104 17.0699 26.8195 17.0697 27.0377C17.0699 27.2558 17.1578 27.465 17.3138 27.6192C17.4699 27.7734 17.6816 27.8602 17.9023 27.8603H29.7804C30.0011 27.8602 30.2128 27.7734 30.3688 27.6192C30.5249 27.465 30.6127 27.2558 30.613 27.0377C30.6127 26.8195 30.5249 26.6104 30.3688 26.4562C30.2128 26.3019 30.0011 26.2152 29.7804 26.215H17.9023ZM13.3619 34.5111C13.2528 34.5115 13.1448 34.5334 13.0442 34.5756C12.9436 34.6177 12.8523 34.6793 12.7755 34.7567L8.64985 38.9233L7.3216 37.354C7.25134 37.2708 7.16534 37.2023 7.06851 37.1523C6.97169 37.1024 6.86594 37.0719 6.75732 37.0628C6.6487 37.0536 6.53934 37.0659 6.43548 37.099C6.33163 37.132 6.23533 37.1852 6.15208 37.2554C6.06886 37.3256 6.00032 37.4115 5.95039 37.5082C5.90046 37.6049 5.87011 37.7104 5.86109 37.8188C5.85206 37.9271 5.86454 38.0362 5.89779 38.1398C5.93105 38.2434 5.98444 38.3394 6.05491 38.4223L7.97116 40.6834C8.04541 40.7704 8.13691 40.8411 8.2399 40.8911C8.34289 40.9411 8.45514 40.9692 8.56957 40.9738C8.684 40.9783 8.79814 40.9592 8.90479 40.9175C9.01145 40.8759 9.1083 40.8127 9.18926 40.7319L13.958 35.9172C14.1112 35.7613 14.1964 35.5514 14.1952 35.3332C14.1939 35.1149 14.1063 34.906 13.9514 34.7519C13.8739 34.6749 13.7819 34.6141 13.6807 34.5727C13.5795 34.5314 13.4712 34.5104 13.3619 34.5111ZM17.9071 37.139C17.7981 37.1392 17.6901 37.1609 17.5895 37.2028C17.4889 37.2447 17.3975 37.306 17.3206 37.3831C17.2437 37.4603 17.1828 37.5518 17.1414 37.6525C17.1001 37.7531 17.079 37.861 17.0794 37.9698C17.0798 38.1887 17.1672 38.3985 17.3223 38.5533C17.4774 38.7081 17.6877 38.7952 17.9071 38.7956H29.7772C29.9963 38.7948 30.2062 38.7075 30.361 38.5527C30.5157 38.398 30.6029 38.1884 30.6033 37.9698C30.6037 37.8611 30.5827 37.7534 30.5414 37.6528C30.5001 37.5523 30.4394 37.4608 30.3627 37.3837C30.286 37.3065 30.1948 37.2452 30.0943 37.2033C29.9939 37.1613 29.8861 37.1395 29.7772 37.139H17.9071Z" fill="white"/>
<path d="M50.9149 15.6389H66.9367V18.4861H60.3576V35.5556H57.4941V18.4861H50.9149V15.6389Z" fill="white"/>
<path d="M68.3615 29.0972C68.3615 28.7176 68.4313 28.3657 68.571 28.0417C68.72 27.7083 68.9156 27.4167 69.1577 27.1667C69.4091 26.9167 69.7025 26.7222 70.0377 26.5833C70.373 26.4352 70.7268 26.3611 71.0993 26.3611H78.1953V23.5H69.2136V20.7639H78.1953C78.5771 20.7639 78.9356 20.838 79.2708 20.9861C79.6061 21.125 79.8948 21.3194 80.1369 21.5694C80.3883 21.8102 80.5839 22.0972 80.7236 22.4306C80.8726 22.7639 80.9471 23.1204 80.9471 23.5V35.5556H78.1953V33.0556C78.1673 33.3982 78.0742 33.7222 77.9159 34.0278C77.7576 34.3333 77.5527 34.6019 77.3013 34.8333C77.0592 35.0556 76.7798 35.2315 76.4632 35.3611C76.1466 35.4907 75.8113 35.5556 75.4575 35.5556H71.0993C70.7268 35.5556 70.373 35.4861 70.0377 35.3472C69.7025 35.1991 69.4091 35.0046 69.1577 34.7639C68.9156 34.5139 68.72 34.2222 68.571 33.8889C68.4313 33.5556 68.3615 33.1991 68.3615 32.8194V29.0972ZM71.0993 32.8194H78.1953V29.0972H71.0993V32.8194Z" fill="white"/>
<path d="M94.5244 32.8194V29.3889H88.0011C87.6193 29.3889 87.2608 29.3194 86.9255 29.1806C86.5903 29.0324 86.297 28.838 86.0455 28.5972C85.8034 28.3472 85.6079 28.0556 85.4589 27.7222C85.3192 27.3889 85.2493 27.0324 85.2493 26.6528V23.5C85.2493 23.1204 85.3192 22.7639 85.4589 22.4306C85.6079 22.0972 85.8034 21.8102 86.0455 21.5694C86.297 21.3194 86.5903 21.125 86.9255 20.9861C87.2608 20.838 87.6193 20.7639 88.0011 20.7639H96.7034V23.5H88.0011V26.6528H94.5244C94.9062 26.6528 95.26 26.7269 95.586 26.875C95.9212 27.0139 96.2146 27.2083 96.466 27.4583C96.7174 27.6991 96.913 27.9861 97.0527 28.3194C97.2017 28.6528 97.2762 29.0093 97.2762 29.3889V32.8194C97.2762 33.1991 97.2017 33.5556 97.0527 33.8889C96.913 34.2222 96.7174 34.5139 96.466 34.7639C96.2146 35.0046 95.9212 35.1991 95.586 35.3472C95.26 35.4861 94.9062 35.5556 94.5244 35.5556H85.2493V32.8194H94.5244Z" fill="white"/>
<path d="M111.412 35.5556L104.316 29.2361V35.5556H101.578V15.0694H104.316V26.5972L110.84 20.7639H114.709L106.719 27.9028L115.281 35.5556H111.412Z" fill="white"/>
<path d="M117.558 15.6389H132.155V18.4861H120.422V24.1806H130.437V27.0278H120.422V35.5556H117.558V15.6389Z" fill="white"/>
<path d="M148.75 32.8194C148.75 33.1991 148.675 33.5556 148.526 33.8889C148.387 34.2222 148.191 34.5139 147.94 34.7639C147.698 35.0046 147.409 35.1991 147.074 35.3472C146.748 35.4861 146.394 35.5556 146.012 35.5556H138.623C138.25 35.5556 137.896 35.4861 137.561 35.3472C137.226 35.1991 136.933 35.0046 136.681 34.7639C136.439 34.5139 136.243 34.2222 136.094 33.8889C135.955 33.5556 135.885 33.1991 135.885 32.8194V23.5C135.885 23.1204 135.955 22.7639 136.094 22.4306C136.243 22.0972 136.439 21.8102 136.681 21.5694C136.933 21.3194 137.226 21.125 137.561 20.9861C137.896 20.838 138.25 20.7639 138.623 20.7639H146.012C146.394 20.7639 146.748 20.838 147.074 20.9861C147.409 21.125 147.698 21.3194 147.94 21.5694C148.191 21.8102 148.387 22.0972 148.526 22.4306C148.675 22.7639 148.75 23.1204 148.75 23.5V32.8194ZM138.623 23.5V32.8194H146.012V23.5H138.623Z" fill="white"/>
<path d="M156.083 23.5V32.8194H163.179V30.3194H165.931V32.8194C165.931 33.1991 165.857 33.5556 165.708 33.8889C165.568 34.2222 165.372 34.5139 165.121 34.7639C164.879 35.0046 164.59 35.1991 164.255 35.3472C163.92 35.4861 163.561 35.5556 163.179 35.5556H156.083C155.711 35.5556 155.357 35.4861 155.022 35.3472C154.686 35.1991 154.393 35.0046 154.142 34.7639C153.9 34.5139 153.704 34.2222 153.555 33.8889C153.415 33.5556 153.345 33.1991 153.345 32.8194V23.5C153.345 23.1204 153.415 22.7639 153.555 22.4306C153.704 22.0972 153.9 21.8102 154.142 21.5694C154.393 21.3194 154.686 21.125 155.022 20.9861C155.357 20.838 155.711 20.7639 156.083 20.7639H163.179C163.561 20.7639 163.92 20.838 164.255 20.9861C164.59 21.125 164.879 21.3194 165.121 21.5694C165.372 21.8102 165.568 22.0972 165.708 22.4306C165.857 22.7639 165.931 23.1204 165.931 23.5V26H163.179V23.5H156.083Z" fill="white"/>
<path d="M170.527 20.7639H173.264V32.8194H180.933V20.7639H183.685V35.5556H180.933V33.0556C180.905 33.3982 180.812 33.7222 180.654 34.0278C180.495 34.3333 180.291 34.6019 180.039 34.8333C179.797 35.0556 179.518 35.2315 179.201 35.3611C178.884 35.4907 178.549 35.5556 178.195 35.5556H173.264C172.892 35.5556 172.538 35.4861 172.203 35.3472C171.868 35.1991 171.574 35.0046 171.323 34.7639C171.081 34.5139 170.885 34.2222 170.736 33.8889C170.596 33.5556 170.527 33.1991 170.527 32.8194V20.7639Z" fill="white"/>
<path d="M197.248 32.8194V29.3889H190.725C190.343 29.3889 189.985 29.3194 189.649 29.1806C189.314 29.0324 189.021 28.838 188.769 28.5972C188.527 28.3472 188.332 28.0556 188.183 27.7222C188.043 27.3889 187.973 27.0324 187.973 26.6528V23.5C187.973 23.1204 188.043 22.7639 188.183 22.4306C188.332 22.0972 188.527 21.8102 188.769 21.5694C189.021 21.3194 189.314 21.125 189.649 20.9861C189.985 20.838 190.343 20.7639 190.725 20.7639H199.427V23.5H190.725V26.6528H197.248C197.63 26.6528 197.984 26.7269 198.31 26.875C198.645 27.0139 198.938 27.2083 199.19 27.4583C199.441 27.6991 199.637 27.9861 199.777 28.3194C199.926 28.6528 200 29.0093 200 29.3889V32.8194C200 33.1991 199.926 33.5556 199.777 33.8889C199.637 34.2222 199.441 34.5139 199.19 34.7639C198.938 35.0046 198.645 35.1991 198.31 35.3472C197.984 35.4861 197.63 35.5556 197.248 35.5556H187.973V32.8194H197.248Z" fill="white"/>
</svg>
