<svg width="12" height="12" viewBox="0 0 12 12" fill="none" xmlns="http://www.w3.org/2000/svg">
<path d="M11.3959 1.26118L10.731 0.595933C10.5428 0.407042 10.3193 0.257168 10.0731 0.154905C9.82695 0.052641 9.56304 0 9.2965 0C9.02997 0 8.76606 0.052641 8.5199 0.154905C8.27374 0.257168 8.05018 0.407042 7.86204 0.595933L0.942848 7.51858C0.896791 7.56486 0.865136 7.62351 0.851717 7.68743L0.00791373 11.5878C-0.00310027 11.6377 -0.00261177 11.6896 0.00934241 11.7393C0.0212966 11.7891 0.0444035 11.8355 0.0769165 11.875C0.109429 11.9146 0.150497 11.9462 0.197016 11.9675C0.243535 11.9888 0.294287 11.9992 0.345435 11.998C0.369554 12.0007 0.393884 12.0007 0.418002 11.998L4.31638 11.1538C4.38026 11.1404 4.43888 11.1087 4.48514 11.0626L11.4043 4.13999C11.5938 3.95105 11.7441 3.72641 11.8463 3.47905C11.9485 3.23168 12.0008 2.9665 12 2.69883C11.9992 2.43115 11.9454 2.16628 11.8417 1.91952C11.738 1.67277 11.5865 1.44901 11.3959 1.26118ZM1.67021 7.75497L7.49583 1.92474L10.0677 4.49794L4.24043 10.3265L1.67021 7.75497ZM1.39175 8.43035L3.56539 10.6051L0.7859 11.2112L1.39175 8.43035ZM10.9149 3.64865L10.5521 4.02011L7.97342 1.44016L8.34301 1.07039C8.59617 0.817262 8.93944 0.675072 9.29735 0.675072C9.65526 0.675072 9.99853 0.817262 10.2517 1.07039L10.9132 1.73226C11.0396 1.85769 11.14 2.00689 11.2085 2.17128C11.2771 2.33567 11.3124 2.51199 11.3126 2.69011C11.3127 2.86822 11.2777 3.04461 11.2094 3.20911C11.1412 3.37362 11.0411 3.523 10.9149 3.64865Z" fill="black"/>
</svg>
