<svg width="10" height="12" viewBox="0 0 10 12" fill="none" xmlns="http://www.w3.org/2000/svg">
<path d="M4.80227 9.59908C5.48729 9.59942 6.16435 9.45209 6.78734 9.16712L8.54653 11.6609C8.66873 11.8343 8.85481 11.9521 9.06381 11.9883C9.27282 12.0245 9.48763 11.9761 9.66101 11.8539C9.83438 11.7316 9.9521 11.5455 9.98828 11.3364C10.0245 11.1273 9.97612 10.9124 9.85392 10.739L8.11273 8.26921C8.91866 7.49864 9.43119 6.47136 9.56227 5.36384C9.69334 4.25633 9.43478 3.13772 8.831 2.20018C8.22722 1.26265 7.31592 0.564727 6.25364 0.226307C5.19137 -0.112112 4.04445 -0.0698993 3.00991 0.345695C1.97536 0.761289 1.11779 1.52432 0.584512 2.5037C0.0512339 3.48308 -0.124459 4.61768 0.0876184 5.71256C0.299695 6.80745 0.886302 7.79428 1.74666 8.50351C2.60702 9.21275 3.68743 9.60012 4.80227 9.59908ZM4.80227 1.59985C5.43487 1.59985 6.05327 1.7875 6.57926 2.13909C7.10526 2.49068 7.51522 2.9904 7.75731 3.57507C7.99939 4.15974 8.06273 4.80309 7.93932 5.42377C7.8159 6.04445 7.51128 6.61458 7.06396 7.06206C6.61664 7.50955 6.04671 7.81429 5.42626 7.93775C4.80581 8.06121 4.1627 7.99785 3.57825 7.75567C2.9938 7.51349 2.49426 7.10338 2.1428 6.57719C1.79134 6.05101 1.60375 5.43238 1.60375 4.79954C1.60375 3.95093 1.94074 3.13707 2.54058 2.53701C3.14041 1.93695 3.95397 1.59985 4.80227 1.59985Z" fill="#939393"/>
</svg>
