<svg width="12" height="15" viewBox="0 0 12 15" fill="none" xmlns="http://www.w3.org/2000/svg">
<g clip-path="url(#clip0_150_25)">
<path d="M8.52632 0H3.47368C3.3 0 3.15789 0.140625 3.15789 0.3125V1.875H1.26316H0.315789C0.142105 1.875 0 2.01562 0 2.1875C0 2.35938 0.142105 2.5 0.315789 2.5H0.969474L1.89474 14.7125C1.90737 14.875 2.04632 15 2.21053 15H9.78947C9.95368 15 10.0926 14.875 10.1053 14.7125L11.0305 2.5H11.6842C11.8579 2.5 12 2.35938 12 2.1875C12 2.01562 11.8579 1.875 11.6842 1.875H10.7368H8.8421V0.3125C8.8421 0.140625 8.7 0 8.52632 0ZM3.78947 0.625H8.21053V1.875H3.78947V0.625ZM10.3958 2.5L9.49579 14.375H2.50421L1.60421 2.5H3.47368H8.52632H10.3958Z" fill="white"/>
<path d="M7.57894 4.0625C7.40526 4.0625 7.26315 4.20312 7.26315 4.375V12.5C7.26315 12.6719 7.40526 12.8125 7.57894 12.8125C7.75263 12.8125 7.89473 12.6719 7.89473 12.5V4.375C7.89473 4.20312 7.75263 4.0625 7.57894 4.0625Z" fill="white"/>
<path d="M4.42104 4.0625C4.24736 4.0625 4.10526 4.20312 4.10526 4.375V12.5C4.10526 12.6719 4.24736 12.8125 4.42104 12.8125C4.59473 12.8125 4.73683 12.6719 4.73683 12.5V4.375C4.73683 4.20312 4.59473 4.0625 4.42104 4.0625Z" fill="white"/>
</g>
<defs>
<clipPath id="clip0_150_25">
<rect width="12" height="15" fill="white"/>
</clipPath>
</defs>
</svg>
